<?xml version="1.0" encoding="utf-8"?>
<!-- Generator: Adobe Illustrator 22.0.1, SVG Export Plug-In . SVG Version: 6.00 Build 0)  -->
<svg version="1.1" id="Layer_1" xmlns="http://www.w3.org/2000/svg" xmlns:xlink="http://www.w3.org/1999/xlink" x="0px" y="0px"
	 viewBox="0 0 1000 1000" style="enable-background:new 0 0 1000 1000;" xml:space="preserve">
<style type="text/css">
	.st0{fill:#0BB14D;}
</style>
<g>
	<g>
		<g>
			<path class="st0" d="M286.9,518.8c2.1-10.1,5.7-19.3,11.2-27.9c4.9-7.7,8.5-16,13.9-23.5c10.7-14.8,23.2-27.5,39.8-35.5
				c13.2-6.4,27.3-9.6,41.8-5.6c17.1,4.6,24.2,19.9,17.1,36c-7,15.9-20.3,23.2-37,25c-12.6,1.4-25.2,2-37.6,4.9
				c-17.2,4-32.3,11.8-45.4,23.5C289.4,516.8,288.2,517.8,286.9,518.8z"/>
			<path class="st0" d="M322.1,504.6c12.5-4.7,24.2-7.5,36.3-8c9.4-0.4,18.7-3.1,28.2-1.2c6.2,1.2,12,3.1,17.1,6.8
				c9,6.5,11.6,15.9,7.1,24.8c-4,7.9-15.1,12-24.6,8.9c-5.3-1.7-9.8-5-14.3-8.2c-6.4-4.5-12.1-9.7-19-13.6
				C343.4,508.8,332.8,508.5,322.1,504.6z"/>
			<path class="st0" d="M311.7,451.9c0.1-15.2-5.7-28-14.5-39.8c-2.6-3.4-5.3-6.6-7.7-10.1c-7.5-10.5-6.2-21.9,3.2-28.4
				c9.4-6.4,23.7-3.1,29.9,7.1c2.8,4.5,4.2,9.5,4.1,14.9C326.3,415.5,321.1,434.1,311.7,451.9z"/>
			<path class="st0" d="M328.9,437.3c5.7-17.3,13.2-33.1,25.3-46.4c7.6-8.3,16.6-13.8,28.6-11.3c7.7,1.6,13.5,6.9,14.9,13.8
				c1.5,7.7-1.8,14.9-8.9,19.2c-3.7,2.3-7.8,3.4-12,4C359.1,419.3,342.2,423.8,328.9,437.3z"/>
			<path class="st0" d="M251.4,414.2c-1-15.8-8.6-28.2-17.8-40c-2.6-3.3-5.5-6.5-7.6-10.2c-4.4-7.5-3.4-15.8,2.3-21.7
				c5.6-5.9,15.1-7.6,22.5-3.8c7.5,3.8,11.9,10,13.2,18.3c2.4,15.3-1.6,29.8-6.2,44.2C256.2,405.6,255,410.3,251.4,414.2z"/>
			<path class="st0" d="M232.3,482.7c-4.3-4-8.3-8.2-12.7-12c-6.1-4.8-24.2-11.9-37-16.1c-0.1,0-0.2-0.1-0.3-0.1
				c-0.4-0.1-0.8-0.3-1.1-0.4c-1.1-0.4-2.1-0.8-3-1.2c-3.9-1.7-6.5-3.5-8.2-5.1c-0.3-0.2-0.5-0.4-0.7-0.6c-0.5-0.5-1-1.1-1.5-1.9
				c-0.3-0.4-0.6-0.8-0.9-1.3c0,0,0-0.1,0-0.1c-3.6-5.8-3.5-12.9,0.3-18.9c4.4-6.9,13.8-10.5,22.4-8.2c6.1,1.7,11.4,4.8,15.8,9.4
				c5.9,6.2,10.3,13.4,14.2,20.9c0,0,0,0.1,0,0.1c4,7,6.9,14.8,8.4,19.3c0,0,0,0.1,0,0.1c0.2,0.5,0.3,1,0.5,1.4
				c0.2,0.6,0.4,1.2,0.5,1.7C230.4,474,231.6,478.1,232.3,482.7z"/>
			<path class="st0" d="M181.2,454.1c-1.2-0.4-2.2-0.8-3-1.2C179.1,453.4,180.2,453.8,181.2,454.1z"/>
			<path class="st0" d="M272.6,388.7c-1.6-15.4-1.8-30.2,3.5-44.6c4.2-11.4,12.5-17.3,22.7-15.9c6.4,0.8,10.9,4,13.1,10.2
				c2.3,6.2,0.5,11.6-4.2,15.9c-2.4,2.2-4.9,4.3-7.7,5.9C288.3,367.1,278.5,375.9,272.6,388.7z"/>
			<path class="st0" d="M247.3,520.4c-14.3-11.4-31.1-13.3-48.1-14.1c-4.7-0.2-9-1.7-12.6-4.7c-8.8-7.2-6.3-19.4,4-24.1
				c10-4.5,18-0.4,25.5,4.5C230.1,491.4,239.9,504.7,247.3,520.4z"/>
			<path class="st0" d="M230.7,444.1c-2-15.4-10.8-26.6-21.1-36.8c-3.3-3.3-6.2-6.8-6.9-11.5c-1.2-7.9,2.7-14.8,9.7-17.2
				c8-2.8,17.5,0.7,21.8,8.4c3.6,6.4,4.7,13.5,4.1,20.8C237.1,420.1,235.7,432.4,230.7,444.1z"/>
			<path class="st0" d="M336.6,404.4c0.9-14.3-4.6-25.8-12.2-36.5c-0.9-1.3-1.9-2.7-2.6-4.1c-4.9-9.4-2.2-18.6,6.3-22.1
				c8.8-3.6,19,1,22.3,10.1c1.3,3.7,1.8,7.5,1.7,11.5C351.5,374.8,344.8,393.2,336.6,404.4z"/>
			<path class="st0" d="M334,513.4c11.6,1.5,20.7,6.7,27.2,15.9c4.9,6.8,4.1,14.5-1.6,20.7c-6,6.5-13.9,4.9-16.9-3.4
				c-0.5-1.5-1-3.2-1.1-4.8C341.3,531.8,339.5,522.3,334,513.4z"/>
			<path class="st0" d="M238.2,523.3c-8.7,0.7-16,4.1-22.9,8.8c-2.4,1.7-4.8,3.4-7.4,4.9c-4.1,2.3-8.5,4.3-12.8,0.8
				c-4.7-3.8-3.5-9-1.6-13.6c2.7-6.8,8.4-10,15.5-10.1C219.6,513.9,229.6,516.2,238.2,523.3z"/>
			<path class="st0" d="M286.6,533.4c7.9-9.1,15.3-18.3,27.5-21.2c2.9-0.7,5.7-1.5,8.6-0.6c4.8,1.4,8.2,4.3,8.4,9.5
				c0.2,5.3-3.2,8.3-8,9.7c-3.1,0.9-6.4,1.1-9.7,0.6C304.4,530.1,295.5,530.2,286.6,533.4z"/>
			<path class="st0" d="M228.6,468.1c-0.1-0.4-0.3-0.9-0.5-1.4c0.1,0.2,0.2,0.4,0.2,0.7C228.4,467.6,228.5,467.9,228.6,468.1z"/>
			<path class="st0" d="M298.2,470.9c-2.8,6.9-6.9,13.3-10.2,20c-9.3,18.2-10.1,61.9-10.6,63.4c-5.4-4.2-7.6-9.8-10.7-14.7
				c-10-16.1-18.9-32.8-24.8-50.9c-1.2-3.6-1.9-7.2-2.1-10.9c0,0,0-0.3,0-0.8c0-0.5,0-1.2,0-2c0,0,0-0.1,0-0.1c0-0.3,0-0.6,0-0.9
				c0.1-5.9,0.7-17.8,4-28.6c0,0,0,0,0,0c2.9-9.4,8-18,16.6-21.1c0.1-0.1,0.3-0.1,0.4-0.1c12.8-3.9,27.5,0,36,11.4
				C305.3,446.8,302.9,459,298.2,470.9z"/>
			<path class="st0" d="M260.8,424.1c-0.1,0-0.3,0.1-0.4,0.1C260.5,424.1,260.7,424.1,260.8,424.1L260.8,424.1z"/>
			<path class="st0" d="M169.4,447.3c-1.5-1.5-2.2-2.7-2.4-3.1c0.3,0.4,0.6,0.8,0.9,1.3C168.4,446.1,168.9,446.8,169.4,447.3z"/>
		</g>
		<path d="M288.8,605c-2.5-19.5-0.5-36.3,7-52.4C281.2,566.5,278.8,583.4,288.8,605z M362.7,661.6c-6.4,2.7-13,5.1-19.7,7
			c-14.3,0.5-44.9-13.7-51.1-28c-4.7-10.8-5.4-22.9-7.7-34.4c-2.6-12.9-5.8-25.5-12-37.2c-6-11.2-14.6-19.6-27.3-25.5
			c1.7,4.5,4.8,5.9,6.9,8.1c13.9,14,22.1,30.5,23.3,50.4c1.6,27.3-11.9,42.7-39.6,49.3c-2.8,0.7-5.6,1-8.5,1.1
			c-17.8,0.7-32.7-5.9-37.1-7.8c-28.1-19.2-50.9-46.2-63.8-77.7c-12.4-28.7-16.7-60.8-12.9-91.8c3.5-31.1,16-61.1,35-86.3
			c19-25.2,44.6-45.5,74-57.9c29.3-12.6,62.1-17.4,94.5-14c-31.9-6.6-65.9-3.8-97,7.5c-15.6,5.7-30.4,13.5-43.9,23.2
			c-13.6,9.7-25.7,21.4-36.3,34.4c-21.2,25.9-35,58-39.6,91.4c-4.6,33.4,0,68,13.2,99.1c13.3,31,34.9,58.5,62.2,78.3
			c27.2,19.8,59.8,32.3,93.2,35.1c33.4,3.1,67.3-3.4,97.1-17.8c29.9-14.4,55.2-37.3,72.7-64.7C418.3,628.9,392.3,649.4,362.7,661.6z
			"/>
	</g>
	<g>
		<g>
			<g>
				<path class="st0" d="M563.7,493.4l-43.4,57.8h-4.9l-42.4-58v96.9h-25.1V456.9h28.9l41.7,57.3l41.7-57.3h28.7v133.2h-25.1V493.4z
					"/>
				<path class="st0" d="M630.5,551.3c1.5,11.6,11.6,20,28,20c8.6,0,19.8-3.2,25.1-8.8l14.8,14.7c-9.9,10.3-26.1,15.2-40.3,15.2
					c-32.3,0-51.6-20-51.6-50c0-28.5,19.4-49.1,49.9-49.1c31.4,0,51,19.4,47.4,58H630.5z M681.5,532c-1.5-12.2-11-18.3-24.4-18.3
					c-12.6,0-22.8,6.1-26.3,18.3H681.5z"/>
				<path class="st0" d="M790.7,589.9v-49.1c0-14.3-7.8-25.1-22.6-25.1c-14.3,0-24,12-24,26.3v48h-23v-94h20.7l1.5,12.7
					c9.5-9.3,19-14.1,30.8-14.1c22.1,0,39.8,16.6,39.8,46v49.3H790.7z"/>
				<path class="st0" d="M856.7,495.7v114.2c0,23.2-10.1,38.2-31.2,38.2c-6.9,0-14.1-1.9-20.7-6.3l8.4-18.1c4,1.9,7.8,2.9,11.2,2.7
					c7.6-0.4,9.3-6.3,9.3-16.6V495.7H856.7z M831.6,469.4c0,18.1,27.4,18.1,27.4,0C859,451.4,831.6,451.4,831.6,469.4z"/>
				<path class="st0" d="M901.8,469.6c0,18.1-27.4,18.1-27.4,0C874.4,451.5,901.8,451.5,901.8,469.6z M876.5,495.7v94.2h23.2v-94.2
					H876.5z"/>
			</g>
		</g>
		<g>
			<g>
				<path class="st0" d="M485,619.9l-14.6,19.5h-1.7l-14.3-19.6v32.7h-8.5v-44.9h9.8l14.1,19.3l14.1-19.3h9.7v44.9H485V619.9z"/>
				<path class="st0" d="M536.7,620.8h7.5v31.7h-7.4l-0.4-4.6c-1.8,3.7-6.7,5.5-10.3,5.6c-9.4,0.1-16.3-5.7-16.3-16.8
					c0-10.9,7.3-16.6,16.5-16.6c4.2,0,8.3,2,10.1,5.1L536.7,620.8z M517.7,636.6c0,6,4.2,9.6,9.4,9.6c12.3,0,12.3-19.2,0-19.2
					C521.8,627,517.7,630.5,517.7,636.6z"/>
				<path class="st0" d="M585.7,617.6l5.8,4.4l-3.5,4.5c2.4,2.8,3.3,5.9,3.3,9.4c0,3.9-1.5,9.4-6.7,11.8c5.3,2.6,6.5,6.4,6.5,10.5
					c0,8.7-6.7,14.1-15.9,14.1s-16-5.6-16-14.1h7.8c0,4.1,3.8,6.8,8.3,6.8s8-2.4,8-6.8c0-4.4-4.1-6.4-8-6.4c-9.9,0-16-6-16-15.9
					c0-9.9,7.2-16,16-16c2.5,0,5.1,0.3,7.3,1.8L585.7,617.6z M567,635.8c0,5.5,3.7,8.8,8.3,8.8c4.5,0,8.2-3.3,8.2-8.8
					c0-5.5-3.7-8.9-8.2-8.9C570.8,626.9,567,630.3,567,635.8z"/>
				<path class="st0" d="M631.5,620.8h7.5v31.7h-7.4l-0.4-4.6c-1.8,3.7-6.7,5.5-10.3,5.6c-9.4,0.1-16.3-5.7-16.3-16.8
					c0-10.9,7.3-16.6,16.5-16.6c4.2,0,8.3,2,10.1,5.1L631.5,620.8z M612.5,636.6c0,6,4.2,9.6,9.4,9.6c12.3,0,12.3-19.2,0-19.2
					C616.7,627,612.5,630.5,612.5,636.6z"/>
				<path class="st0" d="M679.6,620.8v3.7L665,644.7h14.7v7.7h-26.6v-3.3l15.2-21.3h-14v-7.1H679.6z"/>
				<path class="st0" d="M703.1,611.9c0,6.1-9.2,6.1-9.2,0C693.8,605.8,703.1,605.8,703.1,611.9z M694.5,620.7v31.8h7.8v-31.8H694.5
					z"/>
				<path class="st0" d="M742.8,652.4v-16.6c0-4.8-2.6-8.5-7.6-8.5c-4.8,0-8.1,4-8.1,8.9v16.2h-7.8v-31.7h7l0.5,4.3
					c3.2-3.1,6.4-4.8,10.4-4.8c7.4,0,13.4,5.6,13.4,15.5v16.6H742.8z"/>
				<path class="st0" d="M774.1,639.4c0.5,3.9,3.9,6.7,9.4,6.7c2.9,0,6.7-1.1,8.5-3l5,4.9c-3.3,3.5-8.8,5.1-13.6,5.1
					c-10.9,0-17.4-6.7-17.4-16.9c0-9.6,6.6-16.6,16.8-16.6c10.6,0,17.2,6.5,16,19.6H774.1z M791.3,632.9c-0.5-4.1-3.7-6.2-8.2-6.2
					c-4.2,0-7.7,2.1-8.9,6.2H791.3z"/>
			</g>
		</g>
	</g>
</g>
</svg>
