<?xml version="1.0" encoding="utf-8"?>
<!-- Generator: Adobe Illustrator 22.0.1, SVG Export Plug-In . SVG Version: 6.00 Build 0)  -->
<svg version="1.1" id="Layer_1" xmlns="http://www.w3.org/2000/svg" xmlns:xlink="http://www.w3.org/1999/xlink" x="0px" y="0px"
	 viewBox="0 0 1000 1000" style="enable-background:new 0 0 1000 1000;" xml:space="preserve">
<style type="text/css">
	.st0{fill:#0BB14D;}
</style>
<g>
	<g>
		<g>
			<path class="st0" d="M530.6,530.8c3.4-16.5,9.4-31.6,18.3-45.6c7.9-12.5,14-26.2,22.7-38.4c17.4-24.2,37.9-44.9,65-58
				c21.6-10.5,44.6-15.6,68.3-9.2c27.9,7.6,39.6,32.4,27.9,58.9c-11.5,26-33.2,37.9-60.5,40.9c-20.5,2.2-41.2,3.3-61.5,8
				c-28.1,6.5-52.7,19.3-74.2,38.4C534.6,527.5,532.6,529.1,530.6,530.8z"/>
			<path class="st0" d="M588,507.4c20.4-7.7,39.5-12.3,59.2-13c15.4-0.6,30.5-5.1,46.1-2c10.1,2,19.6,5.1,27.9,11.2
				c14.6,10.7,18.9,26,11.6,40.6c-6.5,13-24.6,19.6-40.3,14.6c-8.7-2.8-16-8.2-23.4-13.4c-10.4-7.3-19.8-15.8-31.1-22.2
				C622.8,514.4,605.5,513.9,588,507.4z"/>
			<path class="st0" d="M571.1,421.4c0.1-24.8-9.2-45.8-23.8-65c-4.2-5.5-8.6-10.8-12.6-16.5c-12.3-17.2-10.2-35.8,5.2-46.3
				c15.4-10.5,38.7-5,48.9,11.7c4.5,7.4,6.9,15.6,6.8,24.3C594.9,362,586.3,392.4,571.1,421.4z"/>
			<path class="st0" d="M599.2,397.6c9.3-28.2,21.6-54.2,41.4-75.8c12.5-13.6,27.1-22.6,46.8-18.4c12.7,2.7,22.1,11.2,24.3,22.6
				c2.4,12.6-3,24.3-14.5,31.4c-6,3.7-12.7,5.6-19.6,6.6C648.5,368.2,620.9,375.5,599.2,397.6z"/>
			<path class="st0" d="M472.4,359.8c-1.6-25.9-14-46.1-29.1-65.3c-4.3-5.4-9-10.7-12.5-16.6c-7.2-12.2-5.5-25.7,3.7-35.4
				c9.1-9.6,24.7-12.4,36.8-6.2c12.2,6.3,19.4,16.3,21.6,29.9c3.9,25.1-2.5,48.7-10.1,72.2C480.4,345.8,478.3,353.4,472.4,359.8z"/>
			<path class="st0" d="M441.2,471.7c-7-6.5-13.6-13.4-20.7-19.6c-10-7.8-39.5-19.4-60.4-26.3c-0.2-0.1-0.3-0.1-0.5-0.2
				c-0.7-0.2-1.3-0.4-1.8-0.6c-1.8-0.6-3.4-1.3-4.9-1.9c-6.3-2.8-10.6-5.7-13.4-8.3c-0.4-0.3-0.8-0.7-1.1-1
				c-0.7-0.8-1.6-1.8-2.5-3.1c-0.5-0.7-1-1.3-1.4-2c0-0.1-0.1-0.1-0.1-0.2c-5.8-9.4-5.7-21.1,0.5-30.8c7.2-11.4,22.6-17.2,36.6-13.4
				c10,2.7,18.7,7.9,25.8,15.4c9.6,10.1,16.9,21.8,23.2,34.1c0,0,0.1,0.1,0.1,0.1c6.5,11.4,11.2,24.2,13.7,31.5c0,0.1,0,0.1,0.1,0.2
				c0.3,0.8,0.5,1.6,0.8,2.3c0.3,0.9,0.6,1.9,0.9,2.8C438.1,457.4,440,464.2,441.2,471.7z"/>
			<path class="st0" d="M357.8,425.1c-2-0.6-3.7-1.3-4.9-1.9C354.4,423.8,356,424.4,357.8,425.1z"/>
			<path class="st0" d="M507.2,318.1c-2.5-25.1-3-49.3,5.7-72.8c6.9-18.6,20.4-28.2,37.1-26c10.5,1.4,17.8,6.6,21.4,16.6
				c3.7,10.2,0.8,18.9-6.8,26.1c-3.9,3.6-8.1,7-12.6,9.7C532.8,282.9,516.8,297.2,507.2,318.1z"/>
			<path class="st0" d="M465.7,533.4c-23.4-18.6-50.8-21.8-78.7-23c-7.6-0.4-14.7-2.8-20.6-7.6c-14.3-11.7-10.3-31.7,6.5-39.4
				c16.3-7.4,29.4-0.7,41.7,7.4C437.7,486,453.7,507.7,465.7,533.4z"/>
			<path class="st0" d="M438.6,408.6c-3.3-25.1-17.6-43.4-34.6-60.1c-5.4-5.4-10.1-11-11.2-18.8c-2-13,4.4-24.1,15.8-28.2
				c13-4.6,28.6,1.1,35.7,13.7c5.9,10.5,7.7,22,6.7,34C449.2,369.4,446.9,389.5,438.6,408.6z"/>
			<path class="st0" d="M611.7,343.9c1.5-23.4-7.4-42.2-20-59.6c-1.5-2.2-3-4.4-4.3-6.7c-8-15.3-3.6-30.4,10.3-36.1
				c14.4-5.9,31.1,1.6,36.5,16.5c2.2,6,3,12.3,2.7,18.8C636.1,295.3,625,325.5,611.7,343.9z"/>
			<path class="st0" d="M607.4,521.9c18.9,2.5,33.8,10.9,44.4,25.9c7.9,11.2,6.6,23.7-2.6,33.8c-9.7,10.6-22.7,8-27.6-5.5
				c-0.9-2.5-1.6-5.2-1.7-7.8C619.4,552,616.4,536.5,607.4,521.9z"/>
			<path class="st0" d="M450.9,538.1c-14.2,1.2-26.2,6.8-37.4,14.4c-4,2.7-7.9,5.6-12.1,7.9c-6.7,3.8-13.8,7-20.9,1.2
				c-7.7-6.3-5.7-14.7-2.7-22.2c4.4-11.1,13.7-16.4,25.3-16.6C420.5,522.7,436.8,526.5,450.9,538.1z"/>
			<path class="st0" d="M530,554.6c12.9-14.9,25.1-29.9,44.9-34.6c4.7-1.1,9.3-2.4,14.1-1c7.8,2.3,13.4,7.1,13.8,15.5
				c0.4,8.7-5.2,13.6-13,15.8c-5.1,1.4-10.5,1.8-15.8,1C559.1,549.3,544.6,549.4,530,554.6z"/>
			<path class="st0" d="M435.2,447.9c-0.2-0.7-0.5-1.4-0.8-2.3c0.2,0.3,0.3,0.7,0.4,1.1C434.9,447.1,435.1,447.5,435.2,447.9z"/>
			<path class="st0" d="M548.9,452.4c-4.5,11.3-11.2,21.8-16.7,32.7c-15.1,29.8-16.5,101.1-17.3,103.6c-8.9-6.9-12.4-16.1-17.4-24.1
				c-16.3-26.3-30.8-53.6-40.5-83.2c-1.9-5.9-3.1-11.8-3.5-17.8c0,0,0-0.5,0-1.3c0-0.8,0-1.9,0-3.3c0-0.1,0-0.1,0-0.1
				c0-0.5,0-1,0-1.4c0.1-9.7,1.1-29.1,6.6-46.7c0,0,0,0,0,0c4.8-15.4,13-29.5,27-34.5c0.2-0.1,0.5-0.2,0.7-0.2
				c20.8-6.4,44.9,0,58.8,18.7C560.5,413.1,556.7,433,548.9,452.4z"/>
			<path class="st0" d="M487.9,375.9c-0.2,0-0.5,0.1-0.7,0.2C487.4,376,487.6,375.9,487.9,375.9L487.9,375.9z"/>
			<path class="st0" d="M338.4,413.8c-2.5-2.5-3.6-4.5-3.9-5.1c0.4,0.7,0.9,1.4,1.4,2C336.8,412,337.7,413,338.4,413.8z"/>
		</g>
		<path d="M533.6,671.6c-4.2-31.8-0.8-59.3,11.4-85.6C521.1,608.7,517.2,636.3,533.6,671.6z M654.4,764.1
			c-10.5,4.4-21.2,8.3-32.2,11.5c-23.3,0.8-73.3-22.4-83.5-45.8c-7.7-17.7-8.7-37.4-12.5-56.2c-4.2-21-9.4-41.7-19.7-60.7
			c-9.8-18.3-23.9-32-44.7-41.6c2.7,7.3,7.8,9.6,11.3,13.2c22.7,22.9,36.2,49.9,38.1,82.4c2.6,44.7-19.4,69.8-64.7,80.5
			c-4.6,1.1-9.2,1.7-13.9,1.8c-29.1,1.1-53.5-9.7-60.6-12.8c-46-31.4-83.1-75.5-104.3-127c-20.3-46.9-27.3-99.3-21.1-150
			c5.8-50.9,26.2-99.8,57.1-141c31-41.1,72.9-74.3,120.9-94.6c47.9-20.7,101.5-28.4,154.4-22.8c-52.1-10.7-107.7-6.2-158.6,12.2
			c-25.4,9.3-49.6,22.1-71.8,37.9c-22.2,15.8-42,34.9-59.2,56.1c-34.6,42.4-57.2,94.7-64.6,149.3c-7.5,54.6,0,111.1,21.5,162
			c21.7,50.7,57,95.6,101.7,127.9c44.4,32.4,97.7,52.7,152.3,57.3c54.6,5.1,110-5.6,158.7-29.1c48.8-23.6,90.3-60.9,118.7-105.8
			C745.2,710.6,702.7,744.2,654.4,764.1z"/>
	</g>
</g>
</svg>
