<?xml version="1.0" encoding="utf-8"?>
<!-- Generator: Adobe Illustrator 22.0.1, SVG Export Plug-In . SVG Version: 6.00 Build 0)  -->
<svg version="1.1" id="Layer_1" xmlns="http://www.w3.org/2000/svg" xmlns:xlink="http://www.w3.org/1999/xlink" x="0px" y="0px"
	 viewBox="0 0 1000 1000" style="enable-background:new 0 0 1000 1000;" xml:space="preserve">
<style type="text/css">
	.st0{fill:#0BB14D;}
</style>
<g>
	<g>
		<g>
			<path class="st0" d="M287.3,518.7c2.1-10,5.7-19.2,11.1-27.8c4.8-7.6,8.5-15.9,13.8-23.3c10.6-14.7,23.1-27.3,39.5-35.3
				c13.2-6.4,27.1-9.5,41.5-5.6c17,4.6,24.1,19.7,17,35.8c-7,15.8-20.2,23.1-36.8,24.9c-12.5,1.4-25.1,2-37.4,4.8
				c-17.1,4-32.1,11.7-45.1,23.4C289.8,516.7,288.5,517.7,287.3,518.7z"/>
			<path class="st0" d="M322.3,504.5c12.4-4.7,24-7.5,36-7.9c9.3-0.4,18.5-3.1,28-1.2c6.2,1.2,11.9,3.1,17,6.8
				c8.9,6.5,11.5,15.8,7.1,24.7c-3.9,7.9-15,11.9-24.5,8.9c-5.3-1.7-9.7-5-14.3-8.2c-6.3-4.5-12-9.6-18.9-13.5
				C343.4,508.8,332.9,508.4,322.3,504.5z"/>
			<path class="st0" d="M311.9,452.2c0.1-15.1-5.6-27.9-14.5-39.5c-2.5-3.4-5.2-6.6-7.7-10c-7.5-10.5-6.2-21.8,3.1-28.2
				c9.4-6.4,23.5-3,29.7,7.1c2.8,4.5,4.2,9.5,4.1,14.8C326.4,416,321.2,434.5,311.9,452.2z"/>
			<path class="st0" d="M329,437.7c5.7-17.2,13.1-33,25.2-46.1c7.6-8.3,16.5-13.7,28.5-11.2c7.7,1.6,13.5,6.8,14.8,13.7
				c1.4,7.7-1.8,14.8-8.8,19.1c-3.7,2.3-7.7,3.4-11.9,4C359,419.8,342.2,424.3,329,437.7z"/>
			<path class="st0" d="M251.9,414.7c-1-15.7-8.5-28.1-17.7-39.7c-2.6-3.3-5.5-6.5-7.6-10.1c-4.4-7.4-3.3-15.7,2.2-21.6
				c5.5-5.9,15-7.5,22.4-3.7c7.4,3.8,11.8,9.9,13.1,18.2c2.4,15.2-1.5,29.6-6.2,43.9C256.8,406.2,255.5,410.8,251.9,414.7z"/>
			<path class="st0" d="M233,482.8c-4.3-4-8.3-8.1-12.6-11.9c-6.1-4.7-24-11.8-36.7-16c-0.1,0-0.2-0.1-0.3-0.1
				c-0.4-0.1-0.8-0.3-1.1-0.4c-1.1-0.4-2.1-0.8-3-1.2c-3.8-1.7-6.4-3.5-8.1-5c-0.3-0.2-0.5-0.4-0.7-0.6c-0.5-0.5-1-1.1-1.5-1.9
				c-0.3-0.4-0.6-0.8-0.9-1.2c0,0,0-0.1,0-0.1c-3.5-5.7-3.5-12.8,0.3-18.7c4.4-6.9,13.8-10.5,22.3-8.2c6.1,1.6,11.4,4.8,15.7,9.4
				c5.9,6.2,10.3,13.3,14.1,20.7c0,0,0,0.1,0,0.1c4,7,6.8,14.7,8.3,19.1c0,0,0,0.1,0,0.1c0.2,0.5,0.3,1,0.5,1.4
				c0.2,0.6,0.4,1.1,0.5,1.7C231.1,474.1,232.2,478.2,233,482.8z"/>
			<path class="st0" d="M182.2,454.4c-1.2-0.4-2.2-0.8-3-1.2C180.1,453.6,181.1,454,182.2,454.4z"/>
			<path class="st0" d="M273.1,389.3c-1.5-15.3-1.8-30,3.5-44.3c4.2-11.3,12.4-17.2,22.6-15.8c6.4,0.8,10.8,4,13,10.1
				c2.3,6.2,0.5,11.5-4.1,15.9c-2.3,2.2-4.9,4.3-7.7,5.9C288.6,367.9,278.9,376.6,273.1,389.3z"/>
			<path class="st0" d="M247.8,520.3c-14.2-11.3-30.9-13.2-47.9-14c-4.6-0.2-8.9-1.7-12.6-4.6c-8.7-7.1-6.2-19.3,4-24
				c9.9-4.5,17.9-0.4,25.4,4.5C230.8,491.5,240.6,504.7,247.8,520.3z"/>
			<path class="st0" d="M231.3,444.4c-2-15.3-10.7-26.4-21-36.6c-3.3-3.3-6.1-6.7-6.8-11.4c-1.2-7.9,2.7-14.7,9.6-17.1
				c7.9-2.8,17.4,0.7,21.7,8.4c3.6,6.4,4.7,13.4,4.1,20.7C237.8,420.6,236.4,432.8,231.3,444.4z"/>
			<path class="st0" d="M336.7,405c0.9-14.2-4.5-25.6-12.1-36.3c-0.9-1.3-1.9-2.7-2.6-4.1c-4.8-9.3-2.2-18.5,6.3-22
				c8.7-3.6,18.9,0.9,22.2,10c1.3,3.7,1.8,7.5,1.6,11.4C351.5,375.5,344.8,393.8,336.7,405z"/>
			<path class="st0" d="M334,513.3c11.5,1.5,20.6,6.6,27,15.8c4.8,6.8,4,14.4-1.6,20.5c-5.9,6.4-13.8,4.9-16.8-3.4
				c-0.5-1.5-1-3.1-1.1-4.7C341.3,531.6,339.5,522.2,334,513.3z"/>
			<path class="st0" d="M238.8,523.2c-8.6,0.7-15.9,4.1-22.7,8.8c-2.4,1.6-4.8,3.4-7.3,4.8c-4.1,2.3-8.4,4.2-12.7,0.8
				c-4.7-3.8-3.4-8.9-1.6-13.5c2.7-6.7,8.4-10,15.4-10.1C220.3,513.8,230.3,516.1,238.8,523.2z"/>
			<path class="st0" d="M286.9,533.2c7.8-9.1,15.3-18.2,27.3-21c2.8-0.7,5.7-1.5,8.6-0.6c4.7,1.4,8.1,4.3,8.4,9.5
				c0.2,5.3-3.2,8.3-7.9,9.6c-3.1,0.9-6.4,1.1-9.6,0.6C304.7,530,295.8,530.1,286.9,533.2z"/>
			<path class="st0" d="M229.3,468.3c-0.1-0.4-0.3-0.9-0.5-1.4c0.1,0.2,0.2,0.4,0.2,0.7C229.1,467.8,229.2,468.1,229.3,468.3z"/>
			<path class="st0" d="M298.5,471c-2.8,6.9-6.8,13.2-10.2,19.9c-9.2,18.1-10,61.5-10.5,63c-5.4-4.2-7.6-9.8-10.6-14.7
				c-9.9-16-18.7-32.6-24.6-50.6c-1.2-3.6-1.9-7.2-2.1-10.9c0,0,0-0.3,0-0.8c0-0.5,0-1.2,0-2c0,0,0-0.1,0-0.1c0-0.3,0-0.6,0-0.9
				c0.1-5.9,0.7-17.7,4-28.4c0,0,0,0,0,0c2.9-9.4,7.9-17.9,16.5-21c0.1-0.1,0.3-0.1,0.4-0.1c12.7-3.9,27.3,0,35.8,11.4
				C305.5,447.2,303.2,459.3,298.5,471z"/>
			<path class="st0" d="M261.3,424.5c-0.1,0-0.3,0.1-0.4,0.1C261,424.6,261.2,424.5,261.3,424.5L261.3,424.5z"/>
			<path class="st0" d="M170.4,447.6c-1.5-1.5-2.2-2.7-2.4-3.1c0.3,0.4,0.5,0.8,0.9,1.2C169.4,446.5,169.9,447.1,170.4,447.6z"/>
		</g>
		<path d="M289.1,604.4c-2.5-19.3-0.5-36.1,6.9-52.1C281.5,566.1,279.2,582.9,289.1,604.4z M362.6,660.6c-6.4,2.7-12.9,5-19.6,7
			c-14.2,0.5-44.6-13.6-50.8-27.9c-4.7-10.8-5.3-22.7-7.6-34.2c-2.6-12.8-5.7-25.3-12-36.9c-6-11.1-14.6-19.5-27.2-25.3
			c1.6,4.5,4.7,5.9,6.9,8c13.8,13.9,22,30.3,23.2,50.1c1.6,27.2-11.8,42.5-39.3,49c-2.8,0.7-5.6,1-8.4,1.1
			c-17.7,0.7-32.6-5.9-36.8-7.8c-28-19.1-50.6-45.9-63.5-77.3c-12.4-28.5-16.6-60.4-12.9-91.3c3.5-31,15.9-60.7,34.7-85.8
			c18.8-25,44.3-45.2,73.5-57.6c29.1-12.6,61.8-17.3,93.9-13.9c-31.7-6.5-65.5-3.8-96.5,7.4c-15.5,5.7-30.2,13.5-43.7,23.1
			c-13.5,9.6-25.6,21.2-36,34.2c-21,25.8-34.8,57.6-39.3,90.8c-4.5,33.2,0,67.6,13.1,98.5c13.2,30.8,34.7,58.2,61.9,77.8
			c27,19.7,59.4,32.1,92.6,34.9c33.2,3.1,66.9-3.4,96.6-17.7c29.7-14.3,54.9-37,72.2-64.4C417.8,628.1,392,648.6,362.6,660.6z"/>
	</g>
	<g>
		<g>
			<g>
				<path d="M562.9,493.1l-43.3,57.7h-4.9l-42.4-57.9v96.7h-25.1V456.6h28.9l41.6,57.2l41.6-57.2H588v132.9h-25.1V493.1z"/>
				<path d="M629.5,550.8c1.5,11.6,11.6,19.9,27.9,19.9c8.5,0,19.8-3.2,25.1-8.7l14.8,14.6c-9.9,10.3-26,15.2-40.3,15.2
					c-32.3,0-51.5-19.9-51.5-49.9c0-28.5,19.4-49,49.8-49c31.3,0,50.9,19.4,47.3,57.9H629.5z M680.4,531.6
					c-1.5-12.2-11-18.2-24.3-18.2c-12.5,0-22.8,6.1-26.2,18.2H680.4z"/>
				<path d="M789.4,589.3v-49c0-14.2-7.8-25.1-22.6-25.1c-14.2,0-23.9,12-23.9,26.2v47.9h-23v-93.8h20.7l1.5,12.7
					c9.5-9.3,19-14.1,30.8-14.1c22,0,39.7,16.5,39.7,46v49.2H789.4z"/>
				<path d="M855.3,495.3v114c0,23.2-10.1,38.2-31.1,38.2c-6.8,0-14.1-1.9-20.7-6.3l8.4-18c4,1.9,7.8,2.8,11.2,2.7
					c7.6-0.4,9.3-6.3,9.3-16.5v-114H855.3z M830.3,469.1c0,18,27.3,18,27.3,0S830.3,451.1,830.3,469.1z"/>
				<path d="M900.3,469.3c0,18-27.3,18-27.3,0S900.3,451.3,900.3,469.3z M875.1,495.3v94h23.2v-94H875.1z"/>
			</g>
		</g>
		<g>
			<g>
				<path d="M484.1,619.2l-14.6,19.4h-1.7l-14.2-19.5v32.5h-8.4v-44.7h9.7l14,19.2l14-19.2h9.6v44.7h-8.4V619.2z"/>
				<path d="M535.5,620.1h7.5v31.5h-7.3l-0.4-4.6c-1.8,3.7-6.7,5.5-10.2,5.6c-9.3,0.1-16.2-5.7-16.2-16.7c0-10.9,7.2-16.5,16.4-16.5
					c4.2,0,8.2,2,10,5.1L535.5,620.1z M516.6,635.8c0,6,4.1,9.6,9.3,9.6c12.3,0,12.3-19.1,0-19.1
					C520.8,626.3,516.6,629.8,516.6,635.8z"/>
				<path d="M584.3,616.9l5.7,4.3l-3.5,4.5c2.4,2.7,3.3,5.9,3.3,9.3c0,3.9-1.5,9.4-6.6,11.7c5.2,2.6,6.5,6.4,6.5,10.4
					c0,8.7-6.6,14-15.8,14c-9.1,0-16-5.6-16-14h7.7c0,4.1,3.8,6.8,8.2,6.8c4.5,0,8-2.4,8-6.8c0-4.3-4.1-6.3-8-6.3
					c-9.8,0-16-6-16-15.8c0-9.8,7.1-16,16-16c2.5,0,5,0.3,7.2,1.8L584.3,616.9z M565.7,635c0,5.5,3.7,8.7,8.2,8.7
					c4.5,0,8.2-3.3,8.2-8.7c0-5.4-3.7-8.9-8.2-8.9C569.4,626.1,565.7,629.5,565.7,635z"/>
				<path d="M629.8,620.1h7.5v31.5H630l-0.4-4.6c-1.8,3.7-6.7,5.5-10.2,5.6c-9.3,0.1-16.2-5.7-16.2-16.7c0-10.9,7.2-16.5,16.4-16.5
					c4.2,0,8.2,2,10,5.1L629.8,620.1z M610.9,635.8c0,6,4.1,9.6,9.3,9.6c12.3,0,12.3-19.1,0-19.1
					C615.1,626.3,610.9,629.8,610.9,635.8z"/>
				<path d="M677.6,620.1v3.7l-14.5,20.1h14.6v7.7h-26.5v-3.3l15.1-21.1h-13.9v-7.1H677.6z"/>
				<path d="M700.9,611.2c0,6.1-9.2,6.1-9.2,0C691.8,605.1,700.9,605.1,700.9,611.2z M692.5,619.9v31.6h7.8v-31.6H692.5z"/>
				<path d="M740.5,651.5v-16.5c0-4.8-2.6-8.4-7.6-8.4c-4.8,0-8,4-8,8.8v16.1h-7.7V620h7l0.5,4.3c3.2-3.1,6.4-4.7,10.3-4.7
					c7.4,0,13.3,5.6,13.3,15.4v16.5H740.5z"/>
				<path d="M771.6,638.6c0.5,3.9,3.9,6.7,9.4,6.7c2.9,0,6.6-1.1,8.4-2.9l5,4.9c-3.3,3.4-8.7,5.1-13.5,5.1
					c-10.9,0-17.3-6.7-17.3-16.8c0-9.6,6.5-16.5,16.7-16.5c10.5,0,17.1,6.5,15.9,19.5H771.6z M788.7,632.1c-0.5-4.1-3.7-6.1-8.2-6.1
					c-4.2,0-7.7,2-8.8,6.1H788.7z"/>
			</g>
		</g>
	</g>
</g>
</svg>
